<svg xmlns="http://www.w3.org/2000/svg" xmlns:xlink="http://www.w3.org/1999/xlink" viewBox="0 -1 78 80" version="1.1" x="0px" y="0px"><title>mail</title><desc>Created with Sketch.</desc><g stroke="none" stroke-width="1" fill="#000000" fill-rule="evenodd"><g transform="translate(-627.000000, -18.000000)"><g transform="translate(627.000000, 18.000000)"><path d="M0,39 C0,17.4608948 17.4561589,0 39,0 C60.5391052,0 78,17.4561589 78,39 C78,60.5391052 60.5438411,78 39,78 C17.4608948,78 0,60.5438411 0,39 Z M20.1460752,23.5515025 C17.9391536,23.5515025 16.1500902,25.336116 16.1500902,27.5427505 L16.1500902,51.0740816 C16.1500902,53.278387 17.9404991,55.0653296 20.1460752,55.0653296 L58.5516409,55.0653296 C60.7585624,55.0653296 62.5476258,53.2807161 62.5476258,51.0740816 L62.5476258,27.5427505 C62.5476258,25.3384451 60.757217,23.5515025 58.5516409,23.5515025 L20.1460752,23.5515025 Z" fill="#ffffff"/><path d="M61.5,28.5 L39.3893776,43.1715058" stroke="#ffffff" stroke-width="5" stroke-linecap="square"/><path d="M16.5,28.5 L38.5134239,43.1775726" stroke="#ffffff" stroke-width="5" stroke-linecap="square"/></g></g></g></svg>